<svg width="64" height="63" viewBox="0 0 64 63" fill="none" xmlns="http://www.w3.org/2000/svg">
<g filter="url(#filter0_i_12_914)">
<rect x="0.5" width="63" height="63" rx="31.5" fill="url(#paint0_linear_12_914)"/>
<g clip-path="url(#clip0_12_914)">
<path d="M31.194 28.8908C31.2998 28.9967 31.4254 29.0807 31.5637 29.1381C31.702 29.1954 31.8502 29.2249 31.9999 29.2249C32.1496 29.2249 32.2978 29.1954 32.436 29.1381C32.5743 29.0807 32.6999 28.9967 32.8057 28.8908L38.5007 23.195C38.6066 23.0892 38.6906 22.9636 38.7479 22.8253C38.8053 22.687 38.8348 22.5388 38.8348 22.3891C38.8348 22.2394 38.8053 22.0911 38.7479 21.9529C38.6906 21.8146 38.6066 21.6889 38.5007 21.5831L32.8057 15.8874C32.6999 15.7815 32.5743 15.6974 32.436 15.6401C32.2978 15.5828 32.1496 15.5533 31.9999 15.5533C31.8502 15.5533 31.702 15.5828 31.5637 15.6401C31.4254 15.6974 31.2998 15.7815 31.194 15.8874L25.499 21.5831C25.3931 21.6889 25.3091 21.8146 25.2518 21.9529C25.1945 22.0911 25.165 22.2394 25.165 22.3891C25.165 22.5388 25.1945 22.687 25.2518 22.8253C25.3091 22.9636 25.3931 23.0892 25.499 23.195L31.194 28.8908ZM31.9999 18.3038L36.0846 22.3891L31.9999 26.4744L27.9151 22.3891L31.9999 18.3038ZM32.8057 34.1095C32.6999 34.0036 32.5743 33.9196 32.436 33.8623C32.2978 33.8049 32.1496 33.7754 31.9999 33.7754C31.8502 33.7754 31.702 33.8049 31.5637 33.8623C31.4254 33.9196 31.2998 34.0036 31.194 34.1095L25.499 39.8053C25.3931 39.9111 25.3091 40.0367 25.2518 40.175C25.1945 40.3133 25.165 40.4615 25.165 40.6112C25.165 40.7609 25.1945 40.9092 25.2518 41.0474C25.3091 41.1857 25.3931 41.3114 25.499 41.4172L31.194 47.1129C31.2998 47.2188 31.4254 47.3029 31.5637 47.3602C31.702 47.4175 31.8502 47.447 31.9999 47.447C32.1496 47.447 32.2978 47.4175 32.436 47.3602C32.5743 47.3029 32.6999 47.2188 32.8057 47.1129L38.5007 41.4172C38.6066 41.3114 38.6906 41.1857 38.7479 41.0474C38.8053 40.9092 38.8348 40.7609 38.8348 40.6112C38.8348 40.4615 38.8053 40.3133 38.7479 40.175C38.6906 40.0367 38.6066 39.9111 38.5007 39.8053L32.8057 34.1095ZM31.9999 44.7008L27.9151 40.6155L31.9999 36.5302L36.0846 40.6155L31.9999 44.7008ZM47.6127 30.6963L41.9177 25.0006C41.8119 24.8947 41.6863 24.8107 41.548 24.7533C41.4098 24.696 41.2615 24.6665 41.1119 24.6665C40.9622 24.6665 40.814 24.696 40.6757 24.7533C40.5374 24.8107 40.4118 24.8947 40.306 25.0006L34.611 30.6963C34.5051 30.8021 34.4211 30.9278 34.3638 31.0661C34.3065 31.2044 34.277 31.3526 34.277 31.5023C34.277 31.652 34.3065 31.8002 34.3638 31.9385C34.4211 32.0768 34.5051 32.2024 34.611 32.3082L40.306 38.004C40.4118 38.1099 40.5374 38.1939 40.6757 38.2513C40.814 38.3086 40.9622 38.3381 41.1119 38.3381C41.2615 38.3381 41.4098 38.3086 41.548 38.2513C41.6863 38.1939 41.8119 38.1099 41.9177 38.004L47.6127 32.3082C47.7186 32.2024 47.8026 32.0768 47.8599 31.9385C47.9172 31.8002 47.9467 31.652 47.9467 31.5023C47.9467 31.3526 47.9172 31.2044 47.8599 31.0661C47.8026 30.9278 47.7186 30.8021 47.6127 30.6963ZM41.1119 35.5876L37.0271 31.5023L41.1119 27.417L45.1966 31.5023L41.1119 35.5876ZM29.3887 30.6963L23.6937 25.0006C23.588 24.8947 23.4623 24.8107 23.3241 24.7533C23.1858 24.696 23.0376 24.6665 22.8879 24.6665C22.7382 24.6665 22.59 24.696 22.4517 24.7533C22.3135 24.8107 22.1878 24.8947 22.0821 25.0006L16.3871 30.6963C16.2812 30.8021 16.1972 30.9278 16.1398 31.0661C16.0825 31.2044 16.053 31.3526 16.053 31.5023C16.053 31.652 16.0825 31.8002 16.1398 31.9385C16.1972 32.0768 16.2812 32.2024 16.3871 32.3082L22.0821 38.004C22.1878 38.1099 22.3135 38.1939 22.4517 38.2513C22.59 38.3086 22.7382 38.3381 22.8879 38.3381C23.0376 38.3381 23.1858 38.3086 23.3241 38.2513C23.4623 38.1939 23.588 38.1099 23.6937 38.004L29.3887 32.3082C29.4946 32.2024 29.5786 32.0768 29.636 31.9385C29.6933 31.8002 29.7228 31.652 29.7228 31.5023C29.7228 31.3526 29.6933 31.2044 29.636 31.0661C29.5786 30.9278 29.4946 30.8021 29.3887 30.6963ZM22.8879 35.5876L18.8032 31.5023L22.8879 27.417L26.9726 31.5023L22.8879 35.5876Z" fill="white"/>
</g>
</g>
<defs>
<filter id="filter0_i_12_914" x="-4.81563" y="-5.31563" width="68.3156" height="68.3156" filterUnits="userSpaceOnUse" color-interpolation-filters="sRGB">
<feFlood flood-opacity="0" result="BackgroundImageFix"/>
<feBlend mode="normal" in="SourceGraphic" in2="BackgroundImageFix" result="shape"/>
<feColorMatrix in="SourceAlpha" type="matrix" values="0 0 0 0 0 0 0 0 0 0 0 0 0 0 0 0 0 0 127 0" result="hardAlpha"/>
<feOffset dx="-5.31563" dy="-5.31563"/>
<feGaussianBlur stdDeviation="7.97344"/>
<feComposite in2="hardAlpha" operator="arithmetic" k2="-1" k3="1"/>
<feColorMatrix type="matrix" values="0 0 0 0 0 0 0 0 0 0 0 0 0 0 0 0 0 0 0.25 0"/>
<feBlend mode="normal" in2="shape" result="effect1_innerShadow_12_914"/>
</filter>
<linearGradient id="paint0_linear_12_914" x1="11.9987" y1="-8.89164e-07" x2="52.0013" y2="63" gradientUnits="userSpaceOnUse">
<stop stop-color="#09C3F6"/>
<stop offset="0.762469" stop-color="#632DE9"/>
</linearGradient>
<clipPath id="clip0_12_914">
<rect width="31.8937" height="31.8937" fill="white" transform="translate(16.053 15.5533)"/>
</clipPath>
</defs>
</svg>
