<svg width="18" height="18" viewBox="0 0 18 18" fill="none" xmlns="http://www.w3.org/2000/svg">
<g filter="url(#filter0_i_12_770)">
<rect width="18" height="18" rx="9" fill="url(#paint0_linear_12_770)"/>
<g clip-path="url(#clip0_12_770)">
<path d="M8.76972 8.2545C8.79994 8.28476 8.83583 8.30877 8.87534 8.32515C8.91485 8.34153 8.95719 8.34996 8.99996 8.34996C9.04273 8.34996 9.08507 8.34153 9.12458 8.32515C9.16409 8.30877 9.19998 8.28476 9.2302 8.2545L10.8573 6.62714C10.8876 6.59692 10.9116 6.56102 10.928 6.52151C10.9444 6.482 10.9528 6.43964 10.9528 6.39687C10.9528 6.3541 10.9444 6.31175 10.928 6.27224C10.9116 6.23272 10.8876 6.19683 10.8573 6.1666L9.2302 4.53924C9.19998 4.50898 9.16409 4.48498 9.12458 4.4686C9.08507 4.45222 9.04273 4.44379 8.99996 4.44379C8.95719 4.44379 8.91485 4.45222 8.87534 4.4686C8.83583 4.48498 8.79994 4.50898 8.76972 4.53924L7.14258 6.1666C7.11232 6.19683 7.08832 6.23272 7.07194 6.27224C7.05556 6.31175 7.04713 6.3541 7.04713 6.39687C7.04713 6.43964 7.05556 6.482 7.07194 6.52151C7.08832 6.56102 7.11232 6.59692 7.14258 6.62714L8.76972 8.2545ZM8.99996 5.22965L10.167 6.39687L8.99996 7.5641L7.83289 6.39687L8.99996 5.22965ZM9.2302 9.74557C9.19998 9.71531 9.16409 9.6913 9.12458 9.67492C9.08507 9.65854 9.04273 9.65011 8.99996 9.65011C8.95719 9.65011 8.91485 9.65854 8.87534 9.67492C8.83583 9.6913 8.79994 9.71531 8.76972 9.74557L7.14258 11.3729C7.11232 11.4032 7.08832 11.4391 7.07194 11.4786C7.05556 11.5181 7.04713 11.5604 7.04713 11.6032C7.04713 11.646 7.05556 11.6883 7.07194 11.7278C7.08832 11.7673 7.11232 11.8032 7.14258 11.8335L8.76972 13.4608C8.79994 13.4911 8.83583 13.5151 8.87534 13.5315C8.91485 13.5479 8.95719 13.5563 8.99996 13.5563C9.04273 13.5563 9.08507 13.5479 9.12458 13.5315C9.16409 13.5151 9.19998 13.4911 9.2302 13.4608L10.8573 11.8335C10.8876 11.8032 10.9116 11.7673 10.928 11.7278C10.9444 11.6883 10.9528 11.646 10.9528 11.6032C10.9528 11.5604 10.9444 11.5181 10.928 11.4786C10.9116 11.4391 10.8876 11.4032 10.8573 11.3729L9.2302 9.74557ZM8.99996 12.7716L7.83289 11.6044L8.99996 10.4372L10.167 11.6044L8.99996 12.7716ZM13.4608 8.77037L11.8336 7.14302C11.8034 7.11275 11.7675 7.08875 11.728 7.07237C11.6885 7.05599 11.6462 7.04756 11.6034 7.04756C11.5606 7.04756 11.5183 7.05599 11.4788 7.07237C11.4393 7.08875 11.4034 7.11275 11.3731 7.14302L9.746 8.77037C9.71575 8.8006 9.69174 8.8365 9.67537 8.87601C9.65899 8.91552 9.65056 8.95787 9.65056 9.00065C9.65056 9.04342 9.65899 9.08577 9.67537 9.12528C9.69174 9.16479 9.71575 9.20069 9.746 9.23092L11.3731 10.8583C11.4034 10.8885 11.4393 10.9125 11.4788 10.9289C11.5183 10.9453 11.5606 10.9537 11.6034 10.9537C11.6462 10.9537 11.6885 10.9453 11.728 10.9289C11.7675 10.9125 11.8034 10.8885 11.8336 10.8583L13.4608 9.23092C13.491 9.20069 13.515 9.16479 13.5314 9.12528C13.5478 9.08577 13.5562 9.04342 13.5562 9.00065C13.5562 8.95787 13.5478 8.91552 13.5314 8.87601C13.515 8.8365 13.491 8.8006 13.4608 8.77037ZM11.6034 10.1679L10.4363 9.00065L11.6034 7.83342L12.7704 9.00065L11.6034 10.1679ZM8.25392 8.77037L6.62678 7.14302C6.59655 7.11275 6.56066 7.08875 6.52115 7.07237C6.48165 7.05599 6.4393 7.04756 6.39653 7.04756C6.35377 7.04756 6.31142 7.05599 6.27192 7.07237C6.23241 7.08875 6.19652 7.11275 6.16629 7.14302L4.53915 8.77037C4.5089 8.8006 4.48489 8.8365 4.46852 8.87601C4.45214 8.91552 4.44371 8.95787 4.44371 9.00065C4.44371 9.04342 4.45214 9.08577 4.46852 9.12528C4.48489 9.16479 4.5089 9.20069 4.53915 9.23092L6.16629 10.8583C6.19652 10.8885 6.23241 10.9125 6.27192 10.9289C6.31142 10.9453 6.35377 10.9537 6.39653 10.9537C6.4393 10.9537 6.48165 10.9453 6.52115 10.9289C6.56066 10.9125 6.59655 10.8885 6.62678 10.8583L8.25392 9.23092C8.28417 9.20069 8.30818 9.16479 8.32455 9.12528C8.34093 9.08577 8.34936 9.04342 8.34936 9.00065C8.34936 8.95787 8.34093 8.91552 8.32455 8.87601C8.30818 8.8365 8.28417 8.8006 8.25392 8.77037ZM6.39653 10.1679L5.22947 9.00065L6.39653 7.83342L7.5636 9.00065L6.39653 10.1679Z" fill="white"/>
</g>
</g>
<defs>
<filter id="filter0_i_12_770" x="-1.51875" y="-1.51875" width="19.5187" height="19.5187" filterUnits="userSpaceOnUse" color-interpolation-filters="sRGB">
<feFlood flood-opacity="0" result="BackgroundImageFix"/>
<feBlend mode="normal" in="SourceGraphic" in2="BackgroundImageFix" result="shape"/>
<feColorMatrix in="SourceAlpha" type="matrix" values="0 0 0 0 0 0 0 0 0 0 0 0 0 0 0 0 0 0 127 0" result="hardAlpha"/>
<feOffset dx="-1.51875" dy="-1.51875"/>
<feGaussianBlur stdDeviation="2.27812"/>
<feComposite in2="hardAlpha" operator="arithmetic" k2="-1" k3="1"/>
<feColorMatrix type="matrix" values="0 0 0 0 0 0 0 0 0 0 0 0 0 0 0 0 0 0 0.25 0"/>
<feBlend mode="normal" in2="shape" result="effect1_innerShadow_12_770"/>
</filter>
<linearGradient id="paint0_linear_12_770" x1="3.28535" y1="-2.54047e-07" x2="14.7147" y2="18" gradientUnits="userSpaceOnUse">
<stop stop-color="#09C3F6"/>
<stop offset="0.762469" stop-color="#632DE9"/>
</linearGradient>
<clipPath id="clip0_12_770">
<rect width="9.1125" height="9.1125" fill="white" transform="translate(4.44371 4.44379)"/>
</clipPath>
</defs>
</svg>
